
        <svg xmlns="http://www.w3.org/2000/svg" xmlns:xlink="http://www.w3.org/1999/xlink" version="1.1" width="2752.3840967427236" 
        height="3173.8582023891868" viewBox="0 -83.46455059729667 2752.3840967427236 3173.8582023891868">
			
			<g transform="scale(10) translate(10, 10)">
				<defs id="SvgjsDefs5506"><linearGradient id="SvgjsLinearGradient5513"><stop id="SvgjsStop5514" stop-color="#ef4136" offset="0"></stop><stop id="SvgjsStop5515" stop-color="#fbb040" offset="1"></stop></linearGradient></defs><g id="SvgjsG5507" featureKey="symbolFeature-0" transform="matrix(2.9742810388489924,0,0,2.9742810388489924,0.3938903812130832,-22.917069477249527)" fill="url(#SvgjsLinearGradient5513)"><path xmlns="http://www.w3.org/2000/svg" d="M52.094,93.749c0.001,0,11.108-7.41,0.883-22.909c-4.773-7.235-12.596-14.971-11.701-22.63  c-1.015,0.883-1.937,1.859-2.38,2.453c-1.618,2.169-2.791,4.529-3.392,6.964c-0.697,2.823-0.515,5.795,1.102,8.686  c1.501,2.683,4.107,5.103,6.558,7.537c5.868,5.826,11.036,12.018,9.461,18.607C52.541,92.811,52.5,93.478,52.094,93.749z"></path><path xmlns="http://www.w3.org/2000/svg" d="M59.398,79.14c0.001-0.001,17.835-11.897,1.417-36.782C53.152,30.742,40.592,18.321,42.03,6.024  c-1.365,1.194-3.11,2.985-3.821,3.939c-2.598,3.482-4.481,7.271-5.446,11.181c-1.12,4.533-0.827,9.304,1.77,13.946  c2.41,4.308,6.594,8.193,10.53,12.102c9.421,9.355,17.719,19.295,15.19,29.876C60.116,77.635,60.049,78.706,59.398,79.14z"></path></g><g id="SvgjsG5508" featureKey="nameFeature-0" transform="matrix(0.9014831219774205,0,0,0.9014831219774205,-2.488093622990793,271.30004140118984)" fill="#939598"></g>
			</g>
		</svg>
	